{"title":"Inside Llewyn Davis 2013 WEBSCR XViD-DontKnow","uid":9482683,"size":964654722,"categoryP":"video","categoryS":"movies","magnet":"?xt=urn:btih:79d89bd72e461eacc6571094878bf53938ffc76f&amp;dn=Inside+Llewyn+Davis+2013+WEBSCR+XViD-DontKnow&amp;tr=udp%3A%2F%2Ftracker.openbittorrent.com%3A80&amp;tr=udp%3A%2F%2Fopen.demonii.com%3A1337&amp;tr=udp%3A%2F%2Ftracker.coppersurfer.tk%3A6969&amp;tr=udp%3A%2F%2Fexodus.desync.com%3A6969","seeders":35,"leechers":1,"uploader":"xxxlavalxxx","files":-1,"time":1389827769,"description":"\n &lt;a href=&quot;\nhttp://www.imdb.com/title/tt2042568/&quot; rel=&quot;nofollow&quot; target=&quot;_NEW&quot;&gt;\nhttp://www.imdb.com/title/tt2042568/&lt;/a&gt;\n\n\nFollow a week in the life of a young folk singer as he navigates the Greenwich Village folk scene of 1961. Guitar in tow, huddled against the unforgiving New York winter, he is struggling to make it as a musician against seemingly insurmountable obstacles -- some of them of his own making.\n\nDirectors: Ethan Coen, Joel Coen\nWriters: Joel Coen, Ethan Coen\nStars: Oscar Isaac, Carey Mulligan, John Goodman\nGenres: Drama | Music\nCountry: USA | France\nLanguage: English\n\n\n\nInfo:\nFormat : AVI\nFormat/Info : Audio Video Interleave\nFile size : 920 MiB\nDuration : 1h 44mn\nOverall bit rate mode : Variable\nOverall bit rate : 1 229 Kbps\n\nVideo\nID : 0\nFormat : xvid\nCodec ID : xvid\nDuration : 1h 44mn\nBit rate : 1 000 Kbps\nWidth : 720 pixels\nHeight : 368 pixels\nDisplay aspect ratio : 1.957\nFrame rate : 23.976 fps\nBits/(Pixel*Frame) : 0.157\nStream size : 749 MiB (81%)\n\nAudio\nID : 1\nFormat : MPEG Audio\nFormat version : Version 1\nFormat profile : Layer 3\nMode : Joint stereo\nMode extension : MS Stereo\nCodec ID : 55\nCodec ID/Hint : MP3\nDuration : 1h 44mn\nBit rate mode : Variable\nBit rate : 78.0 Kbps\nChannel(s) : 2 channels\nSampling rate : 48.0 KHz\nCompression mode : Lossy\nStream size : 162 MiB (18%)\nAlignment : Aligned on interleaves\nInterleave, duration : 24 ms (0.58 video frame)\nWriting library : LAME3.99.5\n\nSource - A Friend Thanks\n\n\n\nscreens\n &lt;a href=&quot;\nhttp://i.imgur.com/AgjVgCR.png&quot; rel=&quot;nofollow&quot; target=&quot;_NEW&quot;&gt;\nhttp://i.imgur.com/AgjVgCR.png&lt;/a&gt; &lt;a href=&quot;\nhttp://i.imgur.com/N5QmhFi.png&quot; rel=&quot;nofollow&quot; target=&quot;_NEW&quot;&gt;\nhttp://i.imgur.com/N5QmhFi.png&lt;/a&gt; &lt;a href=&quot;\nhttp://i.imgur.com/xeIxF6F.png&quot; rel=&quot;nofollow&quot; target=&quot;_NEW&quot;&gt;\nhttp://i.imgur.com/xeIxF6F.png&lt;/a&gt; &lt;a href=&quot;\nhttp://i.imgur.com/M9vN1bq.png&quot; rel=&quot;nofollow&quot; target=&quot;_NEW&quot;&gt;\nhttp://i.imgur.com/M9vN1bq.png&lt;/a&gt; &lt;a href=&quot;\nhttp://i.imgur.com/hru8uSA.png&quot; rel=&quot;nofollow&quot; target=&quot;_NEW&quot;&gt;\nhttp://i.imgur.com/hru8uSA.png&lt;/a&gt;","torrent":{"xt":"urn:btih:79d89bd72e461eacc6571094878bf53938ffc76f","amp;dn":"Inside+Llewyn+Davis+2013+WEBSCR+XViD-DontKnow","amp;tr":["udp%3A%2F%2Ftracker.openbittorrent.com%3A80","udp%3A%2F%2Fopen.demonii.com%3A1337","udp%3A%2F%2Ftracker.coppersurfer.tk%3A6969","udp%3A%2F%2Fexodus.desync.com%3A6969"],"infoHash":"79d89bd72e461eacc6571094878bf53938ffc76f","infoHashBuffer":{"type":"Buffer","data":[121,216,155,215,46,70,30,172,198,87,16,148,135,139,245,57,56,255,199,111]},"announce":[],"urlList":[]}}